inDegrees=no
num_controls=7
num_derivatives=13
num_iterations=156
num_multipliers=7
num_parameters=0
num_slacks=7
num_states=26
objective=0.324448
objective_accelerations=0.000000
objective_balance=0.002755
objective_effort=0.090765
objective_height=0.220172
objective_ligament=0.010757
solver_duration=2133.669102
status=Solve_Succeeded
success=true
DataType=double
version=3
OpenSimVersion=4.5
endheader
time	/jointset/ground_pelvis/pelvis_tilt/value	/jointset/ground_pelvis/pelvis_tx/value	/jointset/ground_pelvis/pelvis_ty/value	/jointset/hip_l/hip_flexion_l/value	/jointset/hip_l/hip_adduction_l/value	/jointset/hip_l/hip_rotation_l/value	/jointset/back/lumbar_extension/value	/jointset/patellofemoral_l/patellar_flexion_l/value	/jointset/knee_l/knee_flexion_l/value	/jointset/knee_l/knee_adduction_l/value	/jointset/knee_l/knee_rotation_l/value	/jointset/ankle_l/ankle_angle_l/value	/jointset/subtalar_l/subtalar_angle_l/value	/jointset/ground_pelvis/pelvis_tilt/speed	/jointset/ground_pelvis/pelvis_tx/speed	/jointset/ground_pelvis/pelvis_ty/speed	/jointset/hip_l/hip_flexion_l/speed	/jointset/hip_l/hip_adduction_l/speed	/jointset/hip_l/hip_rotation_l/speed	/jointset/back/lumbar_extension/speed	/jointset/patellofemoral_l/patellar_flexion_l/speed	/jointset/knee_l/knee_flexion_l/speed	/jointset/knee_l/knee_adduction_l/speed	/jointset/knee_l/knee_rotation_l/speed	/jointset/ankle_l/ankle_angle_l/speed	/jointset/subtalar_l/subtalar_angle_l/speed	/forceset/tau_hip_flexion_l	/forceset/tau_hip_adduction_l	/forceset/tau_hip_rotation_l	/forceset/tau_knee_flexion_l	/forceset/tau_ankle_angle_l	/forceset/tau_subtalar_angle_l	/forceset/tau_lumbar_extension	lambda_cid13_p0	lambda_cid13_p1	lambda_cid13_p2	lambda_cid13_p3	lambda_cid13_p4	lambda_cid13_p5	lambda_cid14_p0	/jointset/ground_pelvis/pelvis_tilt/accel	/jointset/ground_pelvis/pelvis_tx/accel	/jointset/ground_pelvis/pelvis_ty/accel	/jointset/hip_l/hip_flexion_l/accel	/jointset/hip_l/hip_adduction_l/accel	/jointset/hip_l/hip_rotation_l/accel	/jointset/back/lumbar_extension/accel	/jointset/patellofemoral_l/patellar_flexion_l/accel	/jointset/knee_l/knee_flexion_l/accel	/jointset/knee_l/knee_adduction_l/accel	/jointset/knee_l/knee_rotation_l/accel	/jointset/ankle_l/ankle_angle_l/accel	/jointset/subtalar_l/subtalar_angle_l/accel	gamma_cid13_p0	gamma_cid13_p1	gamma_cid13_p2	gamma_cid13_p3	gamma_cid13_p4	gamma_cid13_p5	gamma_cid14_p0
1	-0.05532109987895209	-0.09312549125098941	0.4114628408667941	2.094386163693149	-0.2367912886349204	0.3426893975919073	-0.9599207578832321	2.094379250421023	2.094379250421023	-8.965735297340174e-05	-0.1742729533573783	0.1930431598116212	0.1372455485014087	0.0003555298348518453	0.002339789744784909	0.0005285783278801737	-9.465069440210672e-05	-0.01488765485622066	-0.03053414357208243	0.0001525863475717466	0.0006631467435989214	0.0006631467435989319	0.0208554776154241	-0.01174508808573904	0.003793029499639313	-0.01618528742642297	-0.2815264299727196	-0.06704758800297475	0.0156137059479292	-0.3848284763781563	0.1548357352774238	-0.007004608203596388	0.3437482100542781	0.8619587404019601	6.273033162267503	-5.317291461489771	12.07600990452736	-702.3863586821219	-99.41183981689039	-0.02258401044231557	0.1115550479933206	-0.1633779247576021	-0.03824618130241506	-0.01621624437848516	0.7082426522019813	1.767093767273808	0.02417084095867199	-0.04122100900002806	-0.04122100900002644	-1.30322250011859	0.4062302155649874	-0.3211298667548386	0.6944823358529428	6.616183996942289e-08	-3.251486140068804e-08	-1.736847141453887e-08	4.13909150475426e-08	-4.553664818045382e-08	-2.4501103521231e-07	6.649508266148353e-08
1.01	-0.05531116965540697	-0.09310990338227518	0.4114661377313122	2.094384587693605	-0.2369079957183719	0.3424621419642779	-0.9599182936360489	2.094384139876978	2.094384139876978	6.177777380804786e-05	-0.1743714105774949	0.1930653219212747	0.1371146863080194	0.001706548577262516	0.0008131706895969737	0.000122330280191715	-0.0001969771408280514	-0.008776631803862385	-0.01606780345617747	0.0003175402083422571	0.0003408886563695076	0.0003408886563715289	0.01035198872613265	-0.008027126622940087	0.0006655344769998582	-0.0103581853153858	-0.2811778384133347	-0.06721148974346636	0.0153797149922178	-0.3843454826758081	0.1557955722686355	-0.00733267458462324	0.3437091829477281	1.200230160366634	6.392005692608677	-5.377062176050696	11.20963495593167	-702.1093278029782	-98.80232045750205	-0.02254143328076134	0.1582870526339921	-0.1419958209615529	-0.04308629526944928	-0.003698548972460443	0.5141009476850505	1.113781783796812	0.009249226534970545	-0.0238112924276767	-0.02381129242767781	-0.7858442150253186	0.3424603391007577	-0.3046327104319818	0.4711734276122168	3.094311479905755e-08	-2.575060204985377e-08	-9.055200422375942e-09	7.663923848964573e-10	-1.300082695623227e-08	-9.999172130231382e-08	2.400515351070034e-08
1.02	-0.05528544689138398	-0.09310852008912528	0.4114651176796	2.094382696888756	-0.2369732788081134	0.3423450252678172	-0.9599148615366785	2.094386590135292	2.094386590135292	0.0001357915853585513	-0.1744351119374908	0.1930569944026193	0.1370309649915171	0.003514037930427073	-0.0005011253680794994	-0.0003348049181922733	-0.0001576117551664464	-0.004602856114212094	-0.00850635733835349	0.0003461567850619484	0.0001753072154089272	0.000175307215408933	0.005371214569200427	-0.004793916061604772	-0.0023048961621722	-0.006757112049024035	-0.2808292468539499	-0.06737539148395795	0.01514572403650638	-0.383862488973331	0.1567554092598473	-0.007660740965737859	0.3436701558415637	1.53745433110567	6.511250823768723	-5.436978273506085	10.36173319981434	-701.8229785599893	-98.2235932847498	-0.02249937573022826	0.2028491701440963	-0.1209133252553102	-0.04842361144152074	0.01212212203902517	0.3207931796603853	0.3861149676576082	-0.00309661585149087	-0.009885679746263152	-0.00988567974626268	-0.1986795536472311	0.3092800352722603	-0.2897169900606863	0.2492765669178655	1.488568731550027e-08	-1.581383400056942e-08	-2.55880650843681e-09	-2.273699147275339e-09	-4.849633718720936e-09	-4.929557192627297e-08	1.048186232783939e-08
1.03	-0.055239732635712	-0.09311943453651891	0.4114593753243692	2.094381653133087	-0.2370051454453994	0.3422686504985631	-0.9599118362145094	2.094387556137865	2.094387556137864	0.000188475868291983	-0.1744664587330766	0.1930195497209113	0.1369737325087035	0.005670703962050133	-0.001667977490211187	-0.0008112497772660757	-5.500415490305234e-05	-0.001964219345489513	-0.007775921747849617	0.000232171388778441	-1.008258738141747e-05	-1.008258738138582e-05	0.006001242760163694	-0.00139448490696901	-0.005178455306718003	-0.004911957003017883	-0.2806842850349154	-0.06749358233959572	0.01496596698555021	-0.3837809245417492	0.1572380819013526	-0.007828172005707264	0.3436655059906114	1.692196113126663	6.575343238292339	-5.468294915652122	10.03398003457291	-701.8376044741606	-97.96962604388717	-0.02247707843584314	0.2283584878958814	-0.1125041647825673	-0.04689181209480203	0.008750073448145138	0.2063354210053418	-0.2345915240591287	-0.01955994051503784	-0.02706138420115731	-0.02706138420115761	0.319183216398864	0.3674191328024991	-0.2853381635231869	0.1187495101406426	-9.762167222731445e-10	-5.844693413545769e-09	3.919047843479616e-09	-4.930276076074734e-09	3.052736784231982e-09	4.380961790126689e-10	-2.745850916573206e-09
1.04	-0.05517119508607889	-0.09314160410695199	0.4114489411427568	2.094381519452306	-0.2370164384158926	0.342169360209453	-0.9599107528341025	2.094385829091679	2.094385829091679	0.0002725282753211766	-0.1744613823216675	0.1929535368903836	0.1369282744836897	0.008078696722651994	-0.002752149975961652	-0.001273170194519683	2.440322248604817e-05	-0.0004881227556822322	-0.01308946130958202	-4.223156737018273e-05	-0.0003633025364013686	-0.0003633025364013654	0.0116448393883573	0.002490725337396501	-0.008018525926130204	-0.004402220489065644	-0.2805393232158809	-0.06761177319523351	0.01478620993459405	-0.3836993601101674	0.1577207545428577	-0.007995603045676728	0.343660856139659	1.845822102619724	6.6412578297085	-5.501760243330059	9.728086989532441	-701.8507017734805	-97.71373411859632	-0.02245482280369317	0.2531145159398561	-0.1043773979790659	-0.0455187230774813	0.007482077464143432	0.08828514387732617	-0.8226800627896487	-0.03518012782451414	-0.0434517089921962	-0.04345170899219629	0.8040341337988341	0.4064358532181236	-0.2830192850339661	-0.0178071394929186	-1.19342058617881e-08	2.06492131641668e-09	4.194080866322543e-09	-9.913761859468508e-09	9.567621089293798e-09	3.910609399203161e-08	-1.258485438454178e-08
1.05	-0.05507767637144961	-0.09317429631058716	0.4114339717803951	2.094381993448864	-0.2370172608420174	0.3420210262067198	-0.9599124059817423	2.094381119889656	2.094381119889655	0.0004068334800225708	-0.1744261331177354	0.1928592412624652	0.1368825539288785	0.01063224505173359	-0.003781889017077507	-0.001717011840230517	5.539791384957067e-05	0.0002950491148231123	-0.01429202064258361	-0.0002350330471203551	-0.0004732889020536372	-0.0004732889020536351	0.01306441263084018	0.003606104090425986	-0.01083605129251488	-0.004812366121607329	-0.2814265833017346	-0.06794736474173345	0.01510277442548833	-0.3834131382519813	0.1571913688688014	-0.007842404253251379	0.3445176533716114	1.656621441169142	6.587955003710539	-5.470536235684735	9.854942614443702	-702.3265447648454	-97.81146023352913	-0.0224439124412046	0.2575489266857596	-0.1016149421448675	-0.04326004648001207	-0.001346868808402328	0.06904490788300799	0.5737514902546905	-0.003325421027353549	0.02101980648897792	0.02101980648897771	-0.5118523103116438	-0.1788609761677615	-0.2804415372123411	-0.06319119933268699	-2.273894766073252e-08	9.910175863345978e-09	4.275275722631956e-09	-1.496996354456834e-08	1.603914645067153e-08	7.742828960841727e-08	-2.231796067199649e-08
1.06	-0.0549584073864712	-0.09321715446162677	0.4114146753693438	2.09438232638558	-0.237011109209588	0.3419292256824186	-0.9599143861967752	2.094378469205344	2.094378469205344	0.0004907801711918408	-0.1744083200987755	0.1927369059059287	0.1368306173329022	0.01322875079248059	-0.004785339456850438	-0.00213857993242665	-3.80874602127612e-06	0.000906688955163232	-0.00178276562318677	-0.0001076450459539523	4.840100592289472e-05	4.840100592289491e-05	0.001573136681936895	-0.0009965116570694243	-0.01362647164976455	-0.00564542872206476	-0.2823138433875884	-0.06828295628823339	0.01541933891638258	-0.3831269163937909	0.1566619831947451	-0.007689205460826022	0.345374450603549	1.466959108506283	6.53300531436992	-5.437076016090356	9.996034516901434	-702.800039998892	-97.92521604468962	-0.0224334620483082	0.2617059982729371	-0.0991196777104813	-0.041064012374541	-0.0105581927827306	0.05397873784428087	1.919682807689461	0.02885776835880123	0.08288354573356346	0.08288354573356342	-1.778135704478377	-0.7371630468868544	-0.2775982832069708	-0.1023905330760682	-8.465382883492419e-09	6.054037509557408e-09	-3.849301479850971e-10	-4.64318887191136e-09	5.520114670449392e-09	3.087832252652229e-08	-7.861605732265023e-09
1.07	-0.05481332303021859	-0.09327001059567634	0.4113911890428404	2.094381895879273	-0.2369981352275131	0.3419797275298033	-0.9599142722511395	2.094381840361093	2.094381840361094	0.0004441656869984397	-0.1744421619808122	0.1925868890789435	0.1367710652922957	0.0157586999512559	-0.005790993744256666	-0.00256356502650309	-6.792199929477819e-05	0.001810443677666739	0.009089273528366035	0.0001059261339177126	0.0004981048179177998	0.000498104817917847	-0.008212867325541188	-0.004460232274198378	-0.01636514244984186	-0.006061085631534811	-0.2813585072296527	-0.06820734211449428	0.01501863361685005	-0.3834836855449826	0.1573576839520209	-0.00756684192680322	0.344555722869378	1.725959828548735	6.441347252853412	-5.430268894774605	9.824789992798696	-702.4041858036552	-98.13353938314238	-0.02245179944749819	0.244228353632287	-0.1020528049618453	-0.0439490487286856	-0.002180519729874981	0.1269255019399578	0.2518862549440525	0.01393058692797809	0.00685320110625471	0.006853201106254682	-0.1763563428201226	0.04576696055720865	-0.2702370049410738	0.01943108034015456	7.142134371204468e-09	1.575484639773132e-09	-5.297338184928058e-09	6.501829224030662e-09	-5.902670149219651e-09	-2.018612129464349e-08	7.881422676997785e-09
